<?xml version="1.0" encoding="UTF-8"?>
<svg width="12px" height="10px" viewBox="0 0 12 10" version="1.1" xmlns="http://www.w3.org/2000/svg" xmlns:xlink="http://www.w3.org/1999/xlink">
    <!-- Generator: Sketch 49.2 (51160) - http://www.bohemiancoding.com/sketch -->
    <title>修改 (1)</title>
    <desc>Created with Sketch.</desc>
    <defs></defs>
    <g id="Page-2" stroke="none" stroke-width="1" fill="none" fill-rule="evenodd">
        <g id="图形化编辑2" transform="translate(-499.000000, -306.000000)" fill="#13CBF7" fill-rule="nonzero">
            <g id="Group-31-Copy-2" transform="translate(393.000000, 275.000000)">
                <g id="Group-8" transform="translate(106.000000, 31.000000)">
                    <g id="修改-(1)">
                        <path d="M2.55060729,7.1371927 C2.7125506,7.1371927 2.87449393,7.05789056 3.03643725,6.97858843 L3.11740891,6.97858843 L1.49797571,5.39254561 L1.49797571,5.47184775 C1.41700405,5.63045202 1.33603239,5.7890563 1.33603239,5.94766059 L0.769230769,7.69230769 L2.55060729,7.1371927 Z M8.21862348,0.793021412 L7.73279352,0.237906424 C7.40890688,-0.0793021414 7.00404859,-0.0793021414 6.68016195,0.237906424 L6.19433198,0.793021412 L7.73279352,2.2997621 L8.21862348,1.82394925 C8.54251012,1.50674069 8.54251012,1.03092784 8.21862348,0.793021412 Z M7.24696356,2.77557494 L5.70850203,1.26883427 L2.06477733,4.83743061 L3.60323888,6.3441713 L7.24696356,2.77557494 Z" id="Shape"></path>
                        <polygon id="Shape" points="0 9.23076923 11.5384615 9.23076923 11.5384615 10 0 10"></polygon>
                    </g>
                </g>
            </g>
        </g>
    </g>
</svg>