<?xml version="1.0" encoding="UTF-8"?>
<svg width="12px" height="12px" viewBox="0 0 12 12" version="1.1" xmlns="http://www.w3.org/2000/svg" xmlns:xlink="http://www.w3.org/1999/xlink">
    <!-- Generator: Sketch 49.2 (51160) - http://www.bohemiancoding.com/sketch -->
    <title>Shape</title>
    <desc>Created with Sketch.</desc>
    <defs></defs>
    <g id="Page-2" stroke="none" stroke-width="1" fill="none" fill-rule="evenodd">
        <g id="图形化编辑4-修改名字" transform="translate(-520.000000, -305.000000)" fill="#00A854">
            <path d="M525.994141,316.988281 C522.683594,316.988281 520,314.304688 520,310.994141 C520,307.683594 522.683594,305 525.994141,305 C529.304688,305 531.988281,307.683594 531.988281,310.994141 C531.988281,314.304688 529.304688,316.988281 525.994141,316.988281 L525.994141,316.988281 Z M529.617578,312.583203 L524.749609,307.845312 C524.603125,307.698828 524.365234,307.698828 524.21875,307.845312 L522.358984,309.623047 C522.2125,309.769531 522.2125,310.007422 522.358984,310.153906 L522.358984,310.153906 C522.505469,310.300391 522.743359,310.300391 522.889844,310.153906 L524.484766,308.641016 L529.086719,313.114062 C529.233203,313.260547 529.471094,313.260547 529.617578,313.114062 L529.617578,313.114062 C529.764063,312.967578 529.764063,312.729688 529.617578,312.583203 L529.617578,312.583203 Z" id="Shape" transform="translate(525.994141, 310.994141) scale(1, -1) translate(-525.994141, -310.994141) "></path>
        </g>
    </g>
</svg>