
<svg width="50px" height="46px" viewBox="0 0 50 46" version="1.1" xmlns="http://www.w3.org/2000/svg" xmlns:xlink="http://www.w3.org/1999/xlink">
    <!-- Generator: Sketch 48.1 (47250) - http://www.bohemiancoding.com/sketch -->
    <desc>Created with Sketch.</desc>
    <defs></defs>
    <g id="Page-2" stroke="none" stroke-width="1" fill="none" fill-rule="evenodd">
        <g id="登陆前" transform="translate(-366.000000, -344.000000)">
            <g id="Group-2" transform="translate(286.000000, 218.000000)">
                <g id="Group-4" transform="translate(0.000000, 110.000000)">
                    <g id="用户-copy-2" transform="translate(80.000000, 16.000000)">
                        <path d="M25.4032258,28.2258065 C16.7167489,28.2258065 9.67741935,35.4476768 9.67741935,44.3548387 L41.1290323,44.3548387 C41.1290323,35.4476768 34.0897028,28.2258065 25.4032258,28.2258065 Z" id="Shape" fill="#FCEE21" fill-rule="nonzero"></path>
                        <path d="M24.3582463,44.3548387 L7.09904589,44.3548387 C6.74125398,44.3548387 6.4516129,44.0742138 6.4516129,43.7275594 C6.4516129,35.8645585 11.6481145,28.997501 19.3889141,26.6424525 C19.7296683,26.5379059 20.0931395,26.7194868 20.201045,27.0496338 C20.3089505,27.3797808 20.1158564,27.7319375 19.7807815,27.8364841 C12.7839618,29.9604298 8.01908224,36.0516418 7.75215811,43.1002801 L24.352567,43.1002801 C24.7103589,43.1002801 25,43.3809051 25,43.7275594 C25,44.0742138 24.7103589,44.3548387 24.3582463,44.3548387 Z" id="Shape" fill="#475669" fill-rule="nonzero"></path>
                        <path d="M27.6701722,10.483871 C29.7165469,12.1576385 31.0172562,14.6765214 31.0172562,17.4917434 C31.0172562,22.5404847 26.8404093,26.6288676 21.6824239,26.6288676 C20.5835487,26.6288676 19.5239191,26.4422837 18.5483871,26.0965547 C20.1686673,27.4245932 22.2542875,28.2258065 24.5361354,28.2258065 C29.6941208,28.2258065 33.8709677,24.1374235 33.8709677,19.0886822 C33.8653612,15.1210301 31.280762,11.7460563 27.6701722,10.483871 Z" id="Shape" fill="#F8B62D" fill-rule="nonzero"></path>
                        <path d="M31.4516129,17.3343311 C31.4516129,14.4755278 30.1251558,11.9176512 28.0382729,10.2179728 C27.0377125,9.87246441 25.9628249,9.67741935 24.8421973,9.67741935 C19.5821088,9.67741935 15.3225806,13.8290928 15.3225806,18.9559915 C15.3225806,21.8147948 16.6490377,24.3726714 18.7359207,26.0723498 C19.736481,26.4178582 20.8113687,26.6129032 21.9319962,26.6129032 C27.1863672,26.6129032 31.4516129,22.4556571 31.4516129,17.3343311 Z" id="Shape" fill="#FCEE21" fill-rule="nonzero"></path>
                        <path d="M23.787494,29.0322581 C17.7853066,29.0322581 12.9032258,24.1489085 12.9032258,18.1451613 C12.9032258,16.7078834 13.1804239,15.3102156 13.7235059,13.9917678 C13.8592764,13.6635705 14.2383024,13.5051304 14.5664144,13.6409362 C14.8945264,13.776742 15.0529254,14.1558665 14.9171549,14.4840638 C14.436301,15.6440715 14.1930455,16.8776407 14.1930455,18.1451613 C14.1930455,23.4415867 18.4981017,27.7477617 23.7931511,27.7477617 C29.0882005,27.7477617 33.3932567,23.4415867 33.3932567,18.1451613 C33.3932567,12.8487358 29.0882005,8.54256086 23.7931511,8.54256086 C21.7000226,8.54256086 19.7143791,9.20461404 18.0455334,10.4551589 C17.7626782,10.6701848 17.3553667,10.6079404 17.1460539,10.3250117 C16.9310839,10.042083 16.993312,9.63466568 17.2761672,9.42529844 C19.1712971,8.00499631 21.4228245,7.25806452 23.7931511,7.25806452 C29.7953385,7.25806452 34.6774194,12.1414141 34.6774194,18.1451613 C34.6717623,24.1489085 29.7896814,29.0322581 23.787494,29.0322581 Z" id="Shape" fill="#475669" fill-rule="nonzero"></path>
                        <path d="M15.0804217,12.0967742 C14.9863193,12.0967742 14.8971697,12.0731053 14.8080201,12.0305014 C14.5356186,11.8884883 14.4365635,11.561858 14.5851461,11.3015006 C14.7436343,11.0269419 14.9665083,10.7807857 15.2290043,10.5914349 C15.4766421,10.4115516 15.8332405,10.4636231 16.0164924,10.7003116 C16.2046971,10.9370002 16.1502168,11.2778317 15.9025791,11.4529813 C15.7639019,11.5523905 15.6499885,11.6802023 15.5707445,11.8222155 C15.4716893,11.997365 15.2785319,12.0967742 15.0804217,12.0967742 Z" id="Shape" fill="#475669" fill-rule="nonzero"></path>
                        <path d="M7.25806452,23.3870968 C6.36782572,23.3870968 5.64516129,22.6644323 5.64516129,21.7741935 C5.64516129,20.8839548 6.36782572,20.1612903 7.25806452,20.1612903 C8.14830331,20.1612903 8.87096774,20.8839548 8.87096774,21.7741935 C8.87096774,22.6591956 8.14830331,23.3870968 7.25806452,23.3870968 Z M7.25806452,20.9520318 C6.80770842,20.9520318 6.43590281,21.3186008 6.43590281,21.7741935 C6.43590281,22.2245496 6.80247172,22.5963553 7.25806452,22.5963553 C7.70842061,22.5963553 8.08022623,22.2297863 8.08022623,21.7741935 C8.07498953,21.3186008 7.70842061,20.9520318 7.25806452,20.9520318 Z" id="Shape" fill="#47B7F8" fill-rule="nonzero"></path>
                        <path d="M5.82275936,13.2893089 L5.06880529,13.2893089 L5.06880529,12.484348 C5.06880529,12.2696917 4.90684479,12.0967742 4.70579037,12.0967742 C4.50473595,12.0967742 4.34277544,12.2696917 4.34277544,12.484348 L4.34277544,13.2893089 L3.58882137,13.2893089 C3.38776696,13.2893089 3.22580645,13.4622265 3.22580645,13.6768827 C3.22580645,13.891539 3.38776696,14.0644565 3.58882137,14.0644565 L4.34277544,14.0644565 L4.34277544,14.8694174 C4.34277544,15.0840737 4.50473595,15.2569912 4.70579037,15.2569912 C4.90684479,15.2569912 5.06880529,15.0840737 5.06880529,14.8694174 L5.06880529,14.0644565 L5.82275936,14.0644565 C6.02381378,14.0644565 6.18577428,13.891539 6.18577428,13.6768827 C6.18577428,13.4622265 6.02381378,13.2893089 5.82275936,13.2893089 Z M47.2176302,13.3548983 L46.4636762,13.3548983 L46.4636762,12.5499374 C46.4636762,12.3352811 46.3017157,12.1623636 46.1006612,12.1623636 C45.8996068,12.1623636 45.7376463,12.3352811 45.7376463,12.5499374 L45.7376463,13.3548983 L44.9836923,13.3548983 C44.7826378,13.3548983 44.6206773,13.5278159 44.6206773,13.7424721 C44.6206773,13.9571284 44.7826378,14.1300459 44.9836923,14.1300459 L45.7376463,14.1300459 L45.7376463,14.9350069 C45.7376463,15.1496631 45.8996068,15.3225806 46.1006612,15.3225806 C46.3017157,15.3225806 46.4636762,15.1496631 46.4636762,14.9350069 L46.4636762,14.1300459 L47.2176302,14.1300459 C47.4186847,14.1300459 47.5806452,13.9571284 47.5806452,13.7424721 C47.5806452,13.5278159 47.4186847,13.3548983 47.2176302,13.3548983 Z" id="Shape" fill="#F7E42F" fill-rule="nonzero"></path>
                        <path d="M44.7645892,20.5710408 L43.9450882,20.5710408 L43.9450882,19.7515398 C43.9450882,19.5323103 43.7676167,19.3548387 43.5483871,19.3548387 C43.3291575,19.3548387 43.151686,19.5323103 43.151686,19.7515398 L43.151686,20.5710408 L42.332185,20.5710408 C42.1129554,20.5710408 41.9354839,20.7485124 41.9354839,20.9677419 C41.9354839,21.1869715 42.1129554,21.3644431 42.332185,21.3644431 L43.151686,21.3644431 L43.151686,22.183944 C43.151686,22.4031736 43.3291575,22.5806452 43.5483871,22.5806452 C43.7676167,22.5806452 43.9450882,22.4031736 43.9450882,22.183944 L43.9450882,21.3644431 L44.7645892,21.3644431 C44.9838188,21.3644431 45.1612903,21.1869715 45.1612903,20.9677419 C45.1612903,20.7485124 44.9838188,20.5710408 44.7645892,20.5710408 Z" id="Shape" fill="#F8B62D" fill-rule="nonzero"></path>
                        <path d="M11.2903226,9.67741935 C11.2903226,10.1228103 11.6513833,10.483871 12.0967742,10.483871 C12.5421651,10.483871 12.9032258,10.1228103 12.9032258,9.67741935 C12.9032258,9.23202843 12.5421651,8.87096774 12.0967742,8.87096774 C11.6513833,8.87096774 11.2903226,9.23202843 11.2903226,9.67741935 Z" id="Shape" fill="#F8B62D" fill-rule="nonzero"></path>
                        <path d="M39.516129,12.9032258 C39.516129,13.1913432 39.6698378,13.4575747 39.9193548,13.6016334 C40.1688718,13.7456921 40.4762895,13.7456921 40.7258065,13.6016334 C40.9753235,13.4575747 41.1290323,13.1913432 41.1290323,12.9032258 C41.1290323,12.6151084 40.9753235,12.3488769 40.7258065,12.2048182 C40.4762895,12.0607595 40.1688718,12.0607595 39.9193548,12.2048182 C39.6698378,12.3488769 39.516129,12.6151084 39.516129,12.9032258 Z" id="Shape" fill="#F8B62D" fill-rule="nonzero"></path>
                        <path d="M33.8709677,4.03225806 C33.8709677,4.47764899 34.2320284,4.83870968 34.6774194,4.83870968 C35.1228103,4.83870968 35.483871,4.47764899 35.483871,4.03225806 C35.483871,3.58686714 35.1228103,3.22580645 34.6774194,3.22580645 C34.2320284,3.22580645 33.8709677,3.58686714 33.8709677,4.03225806 Z" id="Shape" fill="#F7E42F" fill-rule="nonzero"></path>
                        <path d="M24.1935343,4.83870968 C23.3033033,4.83870968 22.5806452,4.11604525 22.5806452,3.22580645 C22.5806452,2.33556766 23.3033033,1.61290323 24.1935343,1.61290323 C25.0837654,1.61290323 25.8064235,2.33556766 25.8064235,3.22580645 C25.8116602,4.11604525 25.0837654,4.83870968 24.1935343,4.83870968 Z M24.1935343,2.40364474 C23.7431822,2.40364474 23.3713798,2.77021366 23.3713798,3.22580645 C23.3713798,3.67616255 23.7379455,4.04796816 24.1935343,4.04796816 C24.6491232,4.04796816 25.0156889,3.68139925 25.0156889,3.22580645 C25.0156889,2.77021366 24.6491232,2.40364474 24.1935343,2.40364474 Z" id="Shape" fill="#F8B62D" fill-rule="nonzero"></path>
                        <path d="M14.6114935,0.59160543 C14.5285679,0.508573089 14.3886309,0.508573089 14.3057053,0.59160543 C14.2642425,0.633121601 14.2435111,0.690206335 14.2435111,0.74729107 C14.2435111,0.804375804 14.2642425,0.861460539 14.3057053,0.902976709 L15.0053902,1.60356209 C15.046853,1.64507826 15.0986815,1.66583634 15.1608757,1.66583634 C15.2178871,1.66583634 15.2748984,1.64507826 15.3163612,1.60356209 C15.3992868,1.52052975 15.3992868,1.38041267 15.3163612,1.29738033 L14.6114935,0.59160543 Z M16.4565884,2.43907502 C16.4151256,2.39755885 16.3632971,2.37680076 16.3011029,2.37680076 C16.2440915,2.37680076 16.1870802,2.39755885 16.1456174,2.43907502 C16.0626918,2.52210736 16.0626918,2.66222444 16.1456174,2.74525678 L16.8453023,3.44584216 C16.8867651,3.48735833 16.9385936,3.50811641 17.0007878,3.50811641 C17.0577992,3.50811641 17.1148105,3.48735833 17.1562733,3.44584216 C17.1977361,3.40432598 17.2184675,3.35243077 17.2184675,3.29015652 C17.2184675,3.23307178 17.1977361,3.17598705 17.1562733,3.13447088 L16.4565884,2.43907502 Z M16.3011029,1.66583634 C16.3581143,1.66583634 16.4151256,1.64507826 16.4565884,1.60356209 L17.1562733,0.902976709 C17.1977361,0.861460539 17.2184675,0.809565326 17.2184675,0.74729107 C17.2184675,0.690206335 17.1977361,0.633121601 17.1562733,0.59160543 C17.0733477,0.508573089 16.9334107,0.508573089 16.8504851,0.59160543 L16.1508002,1.29219081 C16.0678746,1.37522315 16.0678746,1.51534023 16.1508002,1.59837257 C16.1870802,1.63988874 16.2440915,1.66583634 16.3011029,1.66583634 Z M15.0002073,2.43907502 L14.3005224,3.1396604 C14.2590596,3.18117657 14.2383282,3.2382613 14.2383282,3.29534604 C14.2383282,3.35243077 14.2590596,3.40951551 14.3005224,3.45103168 C14.3419852,3.49254785 14.3938137,3.51330593 14.456008,3.51330593 C14.5130193,3.51330593 14.5700307,3.49254785 14.6114935,3.45103168 L15.3111784,2.7504463 C15.394104,2.66741396 15.394104,2.52729688 15.3111784,2.44426454 C15.2282528,2.35604268 15.0831329,2.35604268 15.0002073,2.43907502 Z M15.1349614,2.01872379 C15.1349614,1.8993648 15.0364873,1.8007639 14.9172817,1.8007639 L13.9273572,1.8007639 C13.8081516,1.8007639 13.7096774,1.8993648 13.7096774,2.01872379 C13.7096774,2.13808278 13.8081516,2.23668369 13.9273572,2.23668369 L14.9172817,2.23668369 C15.0416701,2.23668369 15.1349614,2.13808278 15.1349614,2.01872379 Z M17.5242557,1.8007639 L16.5343312,1.8007639 C16.4151256,1.8007639 16.3166515,1.8993648 16.3166515,2.01872379 C16.3166515,2.13808278 16.4151256,2.23668369 16.5343312,2.23668369 L17.5242557,2.23668369 C17.6434613,2.23668369 17.7419355,2.13808278 17.7419355,2.01872379 C17.7419355,1.8993648 17.6434613,1.8007639 17.5242557,1.8007639 Z M15.7309893,7.37475335e-16 C15.6117837,7.37475335e-16 15.5133096,0.0986009051 15.5133096,0.217959895 L15.5133096,1.20915847 C15.5133096,1.32851746 15.6117837,1.42711836 15.7309893,1.42711836 C15.8501949,1.42711836 15.948669,1.32851746 15.948669,1.20915847 L15.948669,0.217959895 C15.948669,0.0986009051 15.8501949,0 15.7309893,0 Z M15.7309893,2.61032922 C15.6117837,2.61032922 15.5133096,2.70893013 15.5133096,2.82828912 L15.5133096,3.81429817 C15.5133096,3.93365716 15.6117837,4.03225806 15.7309893,4.03225806 C15.8501949,4.03225806 15.948669,3.93365716 15.948669,3.81429817 L15.948669,2.82828912 C15.948669,2.70893013 15.8501949,2.61032922 15.7309893,2.61032922 Z" id="Shape" fill="#FAEE00" fill-rule="nonzero"></path>
                        <path d="M49.3631285,45.1612903 L47.849162,45.1612903 C47.4972067,45.1612903 47.2122905,44.8005093 47.2122905,44.3548387 C47.2122905,43.9091681 47.5027933,43.5483871 47.849162,43.5483871 L49.3631285,43.5483871 C49.7150838,43.5483871 50,43.9091681 50,44.3548387 C50,44.8005093 49.7150838,45.1612903 49.3631285,45.1612903 Z M2.5698324,45.1612903 L0.636871508,45.1612903 C0.284916201,45.1612903 0,44.8005093 0,44.3548387 C0,43.9091681 0.284916201,43.5483871 0.636871508,43.5483871 L2.57541899,43.5483871 C2.9273743,43.5483871 3.2122905,43.9091681 3.2122905,44.3548387 C3.2122905,44.8005093 2.92178771,45.1612903 2.5698324,45.1612903 Z" id="Shape" fill="#475669" fill-rule="nonzero"></path>
                        <path d="M45.3337041,45.1612903 L4.66629588,45.1612903 C4.31590656,45.1612903 4.03225806,44.8005093 4.03225806,44.3548387 C4.03225806,43.9091681 4.31590656,43.5483871 4.66629588,43.5483871 L45.3337041,43.5483871 C45.6840934,43.5483871 45.9677419,43.9091681 45.9677419,44.3548387 C45.9677419,44.8005093 45.6840934,45.1612903 45.3337041,45.1612903 Z" id="Shape" fill="#475669" fill-rule="nonzero"></path>
                        <rect id="Rectangle-9" fill="#FFFFFF" x="41" y="40" width="3" height="2"></rect>
                        <rect id="Rectangle-9" fill="#FFFFFF" x="39" y="29" width="3" height="2"></rect>
                        <polygon id="Rectangle-9" fill="#FFFFFF" points="46 34.5 47 35 48.5 35.75 46 37"></polygon>
                        <g id="API接口" transform="translate(28.000000, 28.000000)" fill="#475669" fill-rule="nonzero">
                            <path d="M17.0488323,7.17791411 L3.08280255,7.17791411 L7.70700637,2.62269939 L10.3694268,2.62269939 C10.6029724,3.45092025 11.3970276,4.04907975 12.2845011,4.04907975 C13.4055202,4.04907975 14.3397028,3.12883436 14.3397028,2.02453988 C14.3397028,0.920245399 13.4055202,0 12.2845011,0 C11.3503185,0 10.6029724,0.598159509 10.3694268,1.42638037 L7.23991507,1.42638037 L1.44798301,7.17791411 L0,7.17791411 L0,8.32822086 L4.34394904,8.32822086 L9.66878981,13.5736196 L12.2377919,13.5736196 L12.2377919,15 L16.3014862,15 L16.3014862,10.9969325 L12.2377919,10.9969325 L12.2377919,12.4233129 L10.1825902,12.4233129 L6.02547771,8.32822086 L17.0955414,8.32822086 L17.0955414,10.4907975 L22,7.77607362 L17.0955414,5.06134969 L17.0955414,7.17791411 L17.0488323,7.17791411 Z M12.3312102,1.19631902 C12.7983015,1.19631902 13.2186837,1.56441718 13.2186837,2.07055215 C13.2186837,2.57668712 12.7983015,2.89877301 12.3312102,2.89877301 C11.8641189,2.89877301 11.4437367,2.53067485 11.4437367,2.02453988 C11.4437367,1.51840491 11.8641189,1.19631902 12.3312102,1.19631902 Z M13.308591,12.014173 L15.308591,12.014173 L15.308591,13.9843348 L13.308591,13.9843348 L13.308591,12.014173 Z M18.1755104,6.67036043 L20.028142,7.7401833 L18.1755104,8.81000617 L18.1755104,6.67036043 Z" id="Shape"></path>
                        </g>
                    </g>
                </g>
            </g>
        </g>
    </g>
</svg>