<?xml version="1.0" encoding="UTF-8"?>
<svg width="16px" height="16px" viewBox="0 0 16 16" version="1.1" xmlns="http://www.w3.org/2000/svg" xmlns:xlink="http://www.w3.org/1999/xlink">
    <!-- Generator: Sketch 49.2 (51160) - http://www.bohemiancoding.com/sketch -->
    <title>checked</title>
    <desc>Created with Sketch.</desc>
    <defs></defs>
    <g id="Page-1" stroke="none" stroke-width="1" fill="none" fill-rule="evenodd">
        <g id="checked" fill="#52C41A" fill-rule="nonzero">
            <path d="M0,8 C0,3.58125 3.58125,0 8,0 C12.41875,0 16,3.58125 16,8 C16,12.41875 12.41875,16 8,16 C3.58125,16 0,12.41875 0,8 Z M10.675,1.665625 C9.828125,1.30625 8.928125,1.125 8,1.125 C7.071875,1.125 6.171875,1.30625 5.325,1.6640625 C4.50625,2.0109375 3.771875,2.50625 3.139062,3.1375 C2.507812,3.76875 2.010938,4.5046875 1.665625,5.3234375 C1.30625,6.171875 1.125,7.071875 1.125,8 C1.125,8.928125 1.30625,9.828125 1.664062,10.675 C2.010938,11.49375 2.50625,12.228125 3.1375,12.8609375 C3.76875,13.4921875 4.504687,13.9890625 5.323438,14.334375 C6.171875,14.69375 7.071875,14.875 8,14.875 C8.928125,14.875 9.828125,14.69375 10.675,14.3359375 C11.49375,13.9890625 12.228125,13.49375 12.860938,12.8625 C13.492188,12.23125 13.989062,11.4953125 14.334375,10.6765625 C14.69375,9.828125 14.875,8.928125 14.875,8 C14.875,7.071875 14.69375,6.171875 14.335938,5.325 C13.989062,4.50625 13.49375,3.7703125 12.860938,3.1390625 C12.229688,2.5078125 11.49375,2.0109375 10.675,1.665625 Z" id="Shape-Copy-4" transform="translate(8.000000, 8.000000) scale(-1, 1) rotate(-180.000000) translate(-8.000000, -8.000000) "></path>
        </g>
    </g>
</svg>