<?xml version="1.0" encoding="UTF-8"?>
<svg width="10px" height="10px" viewBox="0 0 10 10" version="1.1" xmlns="http://www.w3.org/2000/svg" xmlns:xlink="http://www.w3.org/1999/xlink">
    <!-- Generator: Sketch 49.2 (51160) - http://www.bohemiancoding.com/sketch -->
    <title>Group 21</title>
    <desc>Created with Sketch.</desc>
    <defs></defs>
    <g id="Page-2" stroke="none" stroke-width="1" fill="none" fill-rule="evenodd">
        <g id="图形化编辑2" transform="translate(-403.000000, -306.000000)">
            <g id="Group-31-Copy-2" transform="translate(393.000000, 275.000000)">
                <g id="Group-21" transform="translate(10.000000, 31.000000)">
                    <rect id="Rectangle-271-Copy-2" fill="#13CBF7" x="0" y="0" width="10" height="10" rx="2"></rect>
                    <g id="Group-Copy" transform="translate(1.250000, 1.250000)">
                        <rect id="Rectangle" x="0" y="0" width="7.5" height="7.5"></rect>
                        <path d="M2.482741,5.65452407 L6.422185,1.27932826 C6.55210514,1.13503732 6.77439715,1.12338749 6.91868808,1.25330764 C7.06297902,1.38322778 7.07462885,1.60551978 6.94470871,1.74981072 L2.75189061,6.40640697 C2.70335124,6.4603154 2.64191825,6.49570927 2.57647656,6.51212294 C2.4509737,6.54866874 2.30998482,6.51346271 2.21665945,6.40981439 L0.560499335,4.57046224 C0.430579192,4.4261713 0.442229022,4.2038793 0.586519959,4.07395916 C0.730810896,3.94403901 0.953102897,3.95568884 1.08302304,4.09997978 L2.482741,5.65452407 Z" id="Combined-Shape" fill="#FFFFFF"></path>
                    </g>
                </g>
            </g>
        </g>
    </g>
</svg>